# xmcd
#
# Track frame offsets:
#	150
#	20097
#	41870
#	50420
#	76147
#	92820
#	133287
#	136400
#	142152
#	167742
#	176547
#
# Disc length: 2586 seconds
#
# Revision: 0
# Processed by: cddbd v1.5.2PL0 Copyright (c) Steve Scherf et al.
# Submitted via: audiograbber 1.83.01
#
DISCID=9f0a180b
DTITLE=Thomas Wilbrandt - The Electric V - Autumn and Winter [CD 2)
DYEAR=1984
DGENRE=Electronic
TTITLE0=Autumn - Leaves And Lutes
TTITLE1=Autumn - Hi Life!
TTITLE2=Autumn - The San Marco Sequence
TTITLE3=Autumn - Phases
TTITLE4=Autumn - The Celebration
TTITLE5=Winter - Wide White Horizon
TTITLE6=Winter - The Electric Harpsichord
TTITLE7=Winter - Radio Music
TTITLE8=Winter - Dancing (At Crystal Palace)
TTITLE9=Winter - Breaking The Ice/The Winter Song
TTITLE10=Winter - Beating The Cold/The Farewell
EXTD=
EXTT0=
EXTT1=
EXTT2=
EXTT3=
EXTT4=
EXTT5=
EXTT6=
EXTT7=
EXTT8=
EXTT9=
EXTT10=
PLAYORDER=
